<?xml version="1.0" standalone="no"?>
<!DOCTYPE svg PUBLIC "-//W3C//DTD SVG 20010904//EN"
 "http://www.w3.org/TR/2001/REC-SVG-20010904/DTD/svg10.dtd">
<svg version="1.0" xmlns="http://www.w3.org/2000/svg"
     width="200px" height="40px" viewBox="0 0 400.000000 330.000000"
 preserveAspectRatio="xMidYMid meet">

<g transform="translate(0.000000,330.000000) scale(0.100000,-0.100000)"
fill="#000000" stroke="none">
<path d="M2612 3101 l-112 -116 212 -212 c117 -117 216 -212 221 -210 11 3
227 218 227 226 0 4 -18 25 -40 46 l-40 39 -48 -47 -48 -48 -47 48 -47 47 41
42 41 42 -40 44 -40 43 -42 -43 -41 -43 -33 28 c-52 43 -52 51 -1 103 l45 46
-43 42 c-23 23 -45 41 -47 41 -3 -1 -56 -54 -118 -118z"/>
<path d="M2375 2851 c-55 -25 -126 -90 -152 -141 -31 -57 -31 -136 -1 -176 43
-57 214 -226 257 -255 74 -49 147 -36 233 41 58 51 108 136 108 181 0 49 -44
109 -164 227 -68 67 -136 126 -150 132 -40 15 -86 12 -131 -9z m149 -268 c132
-132 155 -166 120 -180 -11 -4 -55 33 -150 128 -130 130 -152 158 -139 179 14
22 38 4 169 -127z"/>
<path d="M2010 2495 l-64 -64 20 -22 c10 -12 38 -40 62 -62 55 -52 67 -74 51
-93 -6 -8 -15 -14 -20 -14 -5 0 -39 32 -76 70 -37 39 -72 70 -78 70 -6 0 -40
-29 -75 -65 l-65 -65 216 -216 215 -215 67 67 c37 36 67 69 67 73 0 4 -38 44
-85 90 -47 46 -84 88 -82 94 2 6 11 15 20 21 14 9 32 -4 104 -76 50 -49 92
-84 98 -80 6 4 36 35 68 68 l57 60 -210 210 c-116 115 -214 210 -218 212 -4 1
-36 -27 -72 -63z"/>
<path d="M502 2027 l-342 -342 732 -732 733 -733 337 338 c317 316 406 417
287 322 -58 -46 -65 -48 -74 -20 -3 11 -17 28 -31 39 -28 22 -31 61 -8 116 8
20 14 41 12 46 -2 5 -66 72 -142 149 -138 139 -139 139 -155 117 -39 -52 -51
-79 -51 -115 0 -32 7 -45 38 -74 l37 -34 40 18 c48 22 108 19 161 -9 53 -27
60 -43 41 -82 -9 -18 -19 -49 -23 -68 -6 -32 -3 -39 30 -69 20 -19 36 -42 36
-55 0 -36 -42 -109 -85 -146 -136 -119 -285 -104 -285 28 0 35 9 36 56 4 37
-25 96 -33 122 -17 7 5 -8 8 -37 8 -62 -1 -100 25 -121 82 -16 48 -9 63 20 37
26 -23 102 -32 118 -13 10 12 7 14 -18 10 -67 -10 -110 33 -125 123 -4 22 -16
69 -28 105 -30 95 -28 185 7 245 15 25 34 49 42 52 18 7 18 22 -1 29 -18 7
-78 -54 -105 -106 -31 -62 -32 -116 -5 -225 31 -122 31 -189 4 -277 -25 -79
-34 -82 -114 -44 -57 26 -98 68 -143 148 -33 57 -90 115 -185 187 -76 58 -128
118 -163 189 -26 51 -29 67 -29 153 0 90 2 99 38 173 29 57 62 101 130 173 51
53 92 99 92 104 0 6 -494 509 -500 509 0 0 -154 -154 -343 -343z m163 -159
c44 -12 141 -47 215 -78 74 -32 153 -61 175 -64 73 -12 74 -16 32 -101 -20
-41 -40 -75 -44 -75 -5 0 -44 37 -88 81 -94 96 -171 149 -275 188 -62 24 -170
46 -170 36 0 -2 30 -13 67 -25 117 -38 193 -83 309 -186 39 -35 88 -85 108
-111 34 -46 36 -53 40 -139 4 -95 24 -155 74 -222 13 -18 21 -36 18 -40 -4 -3
-37 -8 -73 -10 -82 -6 -117 11 -155 71 -51 81 -100 127 -211 201 -121 80 -189
141 -238 213 -67 98 -91 220 -49 258 41 38 126 38 265 3z"/>
<path d="M2916 2353 c-47 -12 -137 -83 -173 -138 -28 -41 -42 -112 -31 -154 7
-24 48 -73 146 -172 114 -113 144 -139 180 -149 89 -23 200 44 223 135 9 35
14 41 32 38 16 -3 33 8 61 37 l39 42 -116 116 -117 117 -80 -80 -80 -79 32
-33 c21 -22 35 -30 42 -23 16 16 22 13 66 -32 43 -45 50 -80 16 -86 -27 -6
-298 265 -294 293 5 33 31 28 78 -15 l44 -40 68 67 68 67 -32 33 c-52 54 -108
72 -172 56z"/>
<path d="M3710 2195 c-14 -16 -5 -33 35 -67 11 -9 17 -20 12 -24 -4 -4 -20 7
-35 24 -32 36 -44 39 -62 17 -11 -14 -7 -22 25 -55 22 -22 44 -40 50 -40 7 0
29 16 49 36 l38 37 -43 43 c-48 49 -51 50 -69 29z"/>
<path d="M1678 2140 c-41 -12 -113 -66 -151 -113 -67 -82 -81 -132 -53 -186
20 -37 89 -99 121 -107 33 -8 98 0 156 20 90 30 122 31 157 1 33 -28 40 -53
20 -73 -18 -18 -25 -15 -71 28 l-43 39 -62 -62 c-59 -60 -60 -63 -44 -82 93
-111 208 -99 323 34 72 84 85 146 44 210 -14 21 -45 52 -70 70 -56 40 -121 42
-235 5 -45 -15 -90 -24 -103 -20 -43 10 -63 86 -23 86 8 0 28 -11 44 -24 l29
-25 61 62 62 63 -32 31 c-55 52 -77 59 -130 43z"/>
<path d="M3613 2100 c-23 -9 -43 -39 -43 -62 0 -18 58 -78 76 -78 20 0 64 48
64 69 0 15 -63 83 -73 80 -1 0 -12 -4 -24 -9z m37 -65 c13 -14 19 -25 13 -25
-5 0 -20 11 -33 25 -13 14 -19 25 -13 25 5 0 20 -11 33 -25z"/>
<path d="M3530 2020 c-13 -8 -12 -13 4 -41 l19 -32 -24 16 c-29 21 -45 21 -53
2 -4 -11 9 -25 44 -47 28 -17 50 -37 50 -44 0 -19 14 -17 33 4 24 27 21 46
-15 102 -36 54 -36 54 -58 40z"/>
<path d="M2512 1969 c-119 -59 -203 -211 -161 -292 20 -38 273 -286 303 -297
70 -24 144 2 220 77 79 79 106 166 72 231 -17 32 -254 270 -288 288 -35 20
-98 17 -146 -7z m161 -268 c97 -97 138 -144 135 -157 -8 -43 -39 -25 -159 93
-134 131 -164 167 -155 188 12 33 46 9 179 -124z"/>
<path d="M3392 1908 c-18 -18 -15 -48 6 -55 9 -4 30 -20 45 -36 25 -27 30 -29
52 -17 27 14 34 40 12 40 -8 0 -30 18 -51 40 -40 43 -46 46 -64 28z"/>
<path d="M3335 1825 c-31 -30 -35 -80 -6 -72 15 3 20 -2 25 -24 8 -39 37 -38
76 2 16 18 30 35 30 39 0 11 -78 80 -90 80 -6 0 -22 -11 -35 -25z m25 -35 c0
-5 -2 -10 -4 -10 -3 0 -8 5 -11 10 -3 6 -1 10 4 10 6 0 11 -4 11 -10z m43 -34
c4 -10 1 -13 -9 -9 -15 6 -19 23 -5 23 5 0 11 -7 14 -14z"/>
<path d="M3242 1734 c-31 -22 -29 -64 6 -97 35 -34 52 -34 86 -1 33 34 33 46
-5 83 -34 35 -54 38 -87 15z m76 -80 c-10 -10 -28 6 -28 24 0 15 1 15 17 -1 9
-9 14 -19 11 -23z"/>
<path d="M3163 1653 c-13 -14 -23 -29 -23 -33 0 -3 20 -26 45 -50 43 -42 45
-43 59 -25 13 18 12 23 -10 53 -14 17 -22 37 -19 42 7 11 -12 41 -24 39 -3 0
-16 -12 -28 -26z"/>
<path d="M2205 1633 c-30 -8 -81 -48 -185 -150 l-95 -93 218 -218 217 -217
110 110 c111 112 150 165 150 205 0 34 -67 116 -198 241 -132 127 -151 138
-217 122z m114 -287 c110 -110 123 -127 117 -150 -3 -14 -10 -26 -14 -26 -6 0
-220 209 -281 275 -8 9 12 25 32 25 15 0 62 -40 146 -124z"/>
<path d="M3088 1576 c-21 -18 -38 -40 -38 -48 0 -19 52 -68 73 -68 10 0 14 -5
11 -15 -15 -38 52 0 75 43 11 20 7 27 -36 72 l-48 49 -37 -33z m39 -41 c8 -9
13 -19 10 -22 -6 -5 -37 21 -37 31 0 10 11 6 27 -9z"/>
<path d="M2955 1445 c-32 -31 -31 -46 1 -84 31 -37 68 -41 95 -9 26 29 24 55
-8 89 -34 35 -56 37 -88 4z m73 -74 c-14 -5 -31 15 -23 29 5 8 11 6 20 -7 9
-11 10 -19 3 -22z"/>
<path d="M1746 1399 l-26 -30 -61 21 c-47 17 -77 21 -133 18 -74 -4 -116 -19
-198 -72 -64 -41 -62 -53 2 -16 80 47 170 66 251 52 36 -6 78 -16 92 -21 l26
-10 -23 -58 -24 -57 -43 4 c-173 19 -269 -30 -269 -135 0 -55 32 -100 93 -131
36 -19 163 -32 153 -16 -4 7 -24 12 -45 12 -48 0 -134 43 -151 76 -41 75 6
147 101 157 81 8 153 -4 157 -27 4 -17 -2 -18 -75 -12 -90 8 -115 -1 -150 -53
-32 -47 -29 -56 20 -75 73 -28 111 -22 157 24 22 22 40 47 40 56 0 24 20 6 20
-19 1 -12 7 -35 15 -52 l15 -30 -7 35 c-3 19 -6 67 -5 105 1 82 24 144 82 221
35 47 40 64 19 64 -4 0 -19 -14 -33 -31z"/>
<path d="M2886 1368 c-12 -17 -18 -19 -29 -9 -12 9 -18 8 -32 -5 -16 -16 -13
-20 39 -72 48 -48 57 -54 71 -42 9 7 14 19 11 27 -3 8 0 13 7 12 15 -3 47 11
47 20 0 4 -16 15 -35 24 -20 9 -40 28 -45 42 -12 31 -15 31 -34 3z"/>
<path d="M2775 1265 c-27 -26 -30 -41 -16 -64 8 -13 12 -13 26 -1 15 12 16 11
10 -12 -5 -20 -2 -29 13 -37 12 -6 23 -11 26 -11 10 0 66 65 66 77 0 15 -70
73 -88 73 -7 0 -24 -11 -37 -25z m35 -36 c0 -6 -4 -7 -10 -4 -5 3 -10 11 -10
16 0 6 5 7 10 4 6 -3 10 -11 10 -16z m35 -29 c3 -5 1 -10 -4 -10 -6 0 -11 5
-11 10 0 6 2 10 4 10 3 0 8 -4 11 -10z"/>
<path d="M2693 1180 c-3 -11 -9 -20 -14 -20 -5 0 -25 -16 -45 -36 l-36 -37 44
-44 c31 -31 49 -42 61 -37 25 9 21 26 -18 64 -19 18 -32 36 -30 39 3 2 22 -12
43 -32 37 -36 39 -37 55 -19 16 17 15 20 -18 52 -19 19 -35 38 -35 44 0 6 17
-7 38 -27 43 -42 50 -44 67 -20 10 14 6 22 -28 55 -44 42 -76 49 -84 18z"/>
<path d="M2515 1006 c-39 -39 -27 -76 23 -76 19 0 22 -3 13 -13 -6 -8 -8 -17
-4 -20 15 -15 47 -5 69 21 28 31 28 31 9 56 -14 18 -36 19 -77 1 -10 -4 -18
-3 -18 3 0 5 12 13 26 16 14 4 24 12 21 19 -7 22 -36 19 -62 -7z m80 -66 c3
-5 -1 -10 -10 -10 -9 0 -13 5 -10 10 3 6 8 10 10 10 2 0 7 -4 10 -10z"/>
<path d="M2426 915 c-34 -32 -33 -57 5 -89 37 -31 62 -33 89 -6 29 29 25 61
-11 93 -38 33 -49 34 -83 2z m34 -25 c0 -5 -2 -10 -4 -10 -3 0 -8 5 -11 10 -3
6 -1 10 4 10 6 0 11 -4 11 -10z m35 -10 c-4 -6 -1 -17 5 -25 8 -10 9 -15 2
-15 -6 0 -14 5 -17 10 -7 12 0 40 10 40 4 0 3 -5 0 -10z"/>
<path d="M2335 825 c-33 -34 -32 -55 8 -93 40 -38 46 -39 81 -7 35 32 33 58
-6 94 -40 38 -50 38 -83 6z m75 -79 c0 -5 -13 3 -30 19 -16 16 -30 33 -30 39
0 5 14 -3 30 -19 17 -16 30 -33 30 -39z"/>
<path d="M2255 744 c-11 -8 -26 -12 -33 -9 -7 3 -21 -2 -29 -11 -15 -14 -11
-21 38 -70 39 -39 60 -53 72 -48 25 9 21 26 -13 59 -16 16 -30 33 -30 39 0 5
15 -4 33 -22 36 -35 62 -41 71 -15 5 11 -5 29 -31 55 -41 42 -49 44 -78 22z"/>
<path d="M2145 634 c-29 -32 -30 -37 -9 -59 15 -15 27 -14 70 2 7 2 15 -1 19
-7 4 -6 1 -11 -6 -9 -28 3 -39 -1 -39 -16 0 -40 71 -19 85 25 11 35 -13 52
-64 47 -25 -3 -37 -3 -27 0 11 3 25 11 33 18 10 11 10 14 -3 19 -26 10 -34 7
-59 -20z"/>
<path d="M2032 548 c-20 -20 -14 -32 32 -71 47 -39 65 -44 84 -25 16 16 15 28
-1 28 -16 0 -70 55 -65 66 5 12 -38 14 -50 2z"/>
<path d="M1975 465 c-26 -25 -33 -59 -15 -70 6 -4 16 -2 23 4 10 7 13 4 12
-16 0 -14 8 -30 17 -36 14 -9 24 -5 53 23 19 19 35 37 35 41 0 12 -74 79 -88
79 -7 0 -24 -11 -37 -25z m35 -36 c0 -6 -4 -7 -10 -4 -5 3 -10 11 -10 16 0 6
5 7 10 4 6 -3 10 -11 10 -16z m35 -30 c11 -17 -1 -21 -15 -4 -8 9 -8 15 -2 15
6 0 14 -5 17 -11z"/>
<path d="M1893 380 c-45 -27 -45 -67 -1 -104 17 -14 37 -26 44 -26 18 0 64 51
64 70 0 14 -61 80 -73 80 -1 0 -17 -9 -34 -20z m22 -30 c3 -5 1 -10 -4 -10 -6
0 -11 5 -11 10 0 6 2 10 4 10 3 0 8 -4 11 -10z m45 -52 c0 -6 -7 -5 -15 2 -8
7 -15 17 -15 22 0 6 7 5 15 -2 8 -7 15 -17 15 -22z"/>
<path d="M1801 293 l-24 -25 47 -46 c43 -44 47 -46 63 -29 16 16 16 18 -5 40
-12 13 -22 32 -22 43 0 19 -18 45 -29 43 -4 0 -17 -12 -30 -26z"/>
<path d="M1695 225 c-14 -13 -25 -30 -25 -37 0 -8 20 -33 44 -57 37 -36 49
-42 71 -37 14 4 29 14 32 24 4 9 14 22 22 29 14 10 12 15 -14 43 l-30 31 -23
-26 c-18 -22 -25 -25 -37 -15 -21 17 -19 29 3 23 21 -5 47 21 37 37 -11 18
-55 11 -80 -15z m100 -76 c12 -19 -5 -23 -22 -6 -16 16 -16 17 -1 17 9 0 20
-5 23 -11z"/>
</g>
</svg>
